 Release Date: 1988
Runtime: 173 min
Genre: Musical, Romance
Starring: Anil Kapoor, Madhuri Dixit, Anupam Kher, Chunky Pandey
Director: N Chandra
SOURCE : REMASTERED DVD5@TEAM DUS(PROBABLY ORIGINAL SOURCE WAS A VCD)

Quote:

General
Complete name : F:VTS_01_1-muxed.mkv
Format : Matroska
File size : 1.36 GiB
Duration : 2h 50mn
Overall bit rate : 1 148 Kbps
Encoded date : UTC 2009-10-16 06:19:43
Writing application : mkvmerge v2.9.7 ('Tenderness') built on Jul 1 2009 18:43:35
Writing library : libebml v0.7.7 + libmatroska v0.8.1

Video
ID : 1
Format : AVC
Format/Info : Advanced Video Codec
Format profile : High@L3.0
Format settings, CABAC : Yes
Format settings, ReFrames : 2 frames
Muxing mode : Container profile=Unknown@3.0
Codec ID : V_MPEG4/ISO/AVC
Duration : 2h 49mn
Bit rate : 997 Kbps
Nominal bit rate : 1 017 Kbps
Width : 700 pixels
Height : 348 pixels
Display aspect ratio : 2.011
Frame rate : 29.970 fps
Resolution : 24 bits
Colorimetry : 4:2:0
Scan type : Progressive
Bits/(Pixel*Frame) : 0.137
Stream size : 1.18 GiB (87%)
Writing library : x264 core 68 r1183M f21daff
Language : English

Audio
ID : 2
Format : AC-3
Format/Info : Audio Coding 3
Codec ID : A_AC3
Duration : 2h 50mn
Bit rate mode : Constant
Bit rate : 128 Kbps
Channel(s) : 2 channels
Channel positions : L R
Sampling rate : 48.0 KHz
Stream size : 156 MiB (11%)

for details and ss: